<svg xmlns="http://www.w3.org/2000/svg" width="200" height="200" viewBox="0 0 200 200">
  <g stroke="#000" stroke-width="7.559">
    <path class="myBoat" d="M337.238 321.38c64.514-75.334 131.77-142.442 201.92-200.862 12.564 75.52 25.655 151.112 19.03 224.12-74.94 1.25-148.794-5.088-220.95-23.257z" transform="matrix(.51812 0 0 .50205 -162.218 -37.382)"/>
    <path class="myBoat" d="M552.902 171.262c18.797 65.046 30.615 128.348 15.857 185.006 38.626-.007 77.852 5.542 114.174-15.858-31.387-68.34-86.12-113.334-130.032-169.148zM402.783 383.754c91.002 5.36 179.977.58 265.35-22.2-2.963 17.21.516 35.14-26.43 49.687-135.35-6.144-141.66 0-212.49 0-14.564-8.01-25.867-16.674-26.43-27.486z" transform="matrix(.51812 0 0 .50205 -162.218 -37.382)"/>
  </g>
</svg>
