<svg xmlns="http://www.w3.org/2000/svg" width="200" height="200" viewBox="0 0 52.916666 52.916666">
  <path class="myBoat" d="M88.824 182.473c-27.674 10.462-47.99 21.742-69.547 32.884 9.07 9.954 23.905 17.437 27.214 29.86-7.86 5.146-1.244 14.905 3.45 12.565 49.456-16.752 91.57-42.765 132.245-70.017 2.46-2.574 3.94-5.515.755-10.205 3.818-4.136 8.987-8.61 10.206-12.096-1.71-3.173-9.46-3.757-15.875-4.913l-26.458 6.426-1.89-19.277c-4.18-.582-7.787-2.317-13.985 1.133l-5.67 12.096-24.568 6.046-13.23-4.536c-1.318.717-3.326.975-2.646 3.024z" stroke="#000" stroke-width="2" transform="matrix(.29714 0 0 .28538 -5.05 -28.902)"/>
  <path d="M98.26 176.556l2.54.592-.244 1.972-2.563-.98zM102.835 177.948l2.54.592-.244 1.972-2.562-.978zM107.646 179.552l2.54.592-.244 1.972-2.563-.98z" fill="#fff2f2" stroke="#f3eeee" stroke-width=".864" transform="matrix(.29714 0 0 .28538 -5.05 -28.902)"/>
  <path d="M94.46 175.21l2.29.5-.22 1.673-2.31-.83z" fill="#fff2f2" stroke="#f3eeee" stroke-width=".755" transform="matrix(.29714 0 0 .28538 -5.05 -28.902)"/>
  <path d="M91.056 174.237l1.985.488-.19 1.627-2.003-.807z" fill="#fff2f2" stroke="#f3eeee" stroke-width=".694" transform="matrix(.29714 0 0 .28538 -5.05 -28.902)"/>
  <path d="M112.858 180.755l5.213.19.29 1.973-5.77-.578z" fill="#fff2f2" stroke="#f3eeee" stroke-width=".864" transform="matrix(.29714 0 0 .28538 -5.05 -28.902)"/>
</svg>
