<svg xmlns="http://www.w3.org/2000/svg" width="200" height="200" viewBox="0 0 52.916666 52.916664">
  <path d="M1475.252-976.95l201.062 217.367 171.053 207.4 68.42-85.525-211.677-151.81-10.69 2.14" fill="none" stroke="#000" stroke-width=".265"/>
  <g stroke="#000" stroke-width="10">
    <path class="myBoat" d="M1486.462-746.733l201.062 223.782c70.7 163.016 121.957 154.95 179.605 203.123 28.61-24.31 60.246-46.27 64.144-89.802L1713.182-557.16l-205.263-220.23z" transform="matrix(.03054 0 0 .0417 -6.778 58.473)"/>
    <path class="myBoat" d="M946.452 627.19l90.715-60.476c-3.196-20.19-12.37-21.602-21.167-24.19l-269.12 175.38-57.45-6.047v36.286L314.475 905.38l-24.19-54.428-48.38 18.143c36.697 146.953 67.87 296.668 151.19 420.31h99.785c10.988 33.428 21.446 66.816 6.805 98.274-3.267 13.02 12.458 23.74 26.458 25.7l114.905-72.57c503.833-51.277 762.777-195.836 912.823-391.843 44.526-42.107 162.37-413.452 93.74-498.93l-864.443 276.94z" transform="matrix(.03054 0 0 .0417 -6.778 -12.524)"/>
    <path d="M320.524 956.786c358.968-204.36 831.38-309.457 1248.833-462.643 16.603 130.757-1.727 266.002-120.952 356.81L1270 651.38c-19.067.057-28.267 6.69-30.238 18.144l184.452 190.5c-219.285 155.493-554.484 214.862-1103.69 96.762z" fill="#fffdfd" transform="matrix(.03054 0 0 .0417 -6.778 -12.524)"/>
  </g>
</svg>
