<?xml version="1.0" encoding="UTF-8" standalone="no"?>
<!-- Created with Inkscape (http://www.inkscape.org/) -->

<svg
   xmlns:dc="http://purl.org/dc/elements/1.1/"
   xmlns:cc="http://creativecommons.org/ns#"
   xmlns:rdf="http://www.w3.org/1999/02/22-rdf-syntax-ns#"
   xmlns:svg="http://www.w3.org/2000/svg"
   xmlns="http://www.w3.org/2000/svg"
   xmlns:sodipodi="http://sodipodi.sourceforge.net/DTD/sodipodi-0.dtd"
   xmlns:inkscape="http://www.inkscape.org/namespaces/inkscape"
   version="1.1"
   id="svg2"
   xml:space="preserve"
   width="153.33333"
   height="49.333332"
   viewBox="0 0 153.33333 49.333332"
   sodipodi:docname="buttonIos.svg"
   inkscape:version="0.92.2 (5c3e80d, 2017-08-06)"><metadata
     id="metadata8"><rdf:RDF><cc:Work
         rdf:about=""><dc:format>image/svg+xml</dc:format><dc:type
           rdf:resource="http://purl.org/dc/dcmitype/StillImage" /><dc:title></dc:title></cc:Work></rdf:RDF></metadata><defs
     id="defs6"><clipPath
       clipPathUnits="userSpaceOnUse"
       id="clipPath20"><path
         d="M 0,0.5 H 115 V 37 H 0 Z"
         id="path18"
         inkscape:connector-curvature="0"
         style="clip-rule:evenodd" /></clipPath><clipPath
       clipPathUnits="userSpaceOnUse"
       id="clipPath26"><path
         d="m -183.5,-172 h 960 v 540 h -960 z"
         id="path24"
         inkscape:connector-curvature="0" /></clipPath><clipPath
       clipPathUnits="userSpaceOnUse"
       id="clipPath36"><path
         d="m 26.68361,18.85558 c -0.0276,3.09454 2.50832,4.599 2.6243,4.66802 -1.43585,2.11601 -3.66094,2.40369 -4.44392,2.42626 -1.86925,0.19876 -3.68263,-1.12885 -4.63352,-1.12885 -0.97224,0 -2.43833,1.10993 -4.01744,1.07841 -2.03386,-0.03219 -3.9376,-1.22109 -4.98016,-3.06899 -2.153784,-3.76381 -0.54674,-9.29588 1.5157,-12.33899 1.03172,-1.491187 2.2379,-3.154924 3.81636,-3.096524 1.54461,0.064041 2.12126,0.994791 3.98458,0.994791 1.84625,0 2.38773,-0.994791 3.99773,-0.955304 1.65633,0.024554 2.70053,1.496832 3.69643,2.999967 1.19239,1.70521 1.67112,3.39085 1.68984,3.47845 -0.03745,0.01095 -3.21605,1.23735 -3.2499,4.94276"
         id="path34"
         inkscape:connector-curvature="0"
         style="clip-rule:evenodd" /></clipPath><clipPath
       clipPathUnits="userSpaceOnUse"
       id="clipPath42"><path
         d="m -183.5,-172 h 960 v 540 h -960 z"
         id="path40"
         inkscape:connector-curvature="0" /></clipPath><clipPath
       clipPathUnits="userSpaceOnUse"
       id="clipPath52"><path
         d="m 23.64338,27.95192 c 0.82964,1.04887 1.39905,2.47602 1.24035,3.92341 -1.20191,-0.05242 -2.70545,-0.8395 -3.57124,-1.86581 -0.76524,-0.90321 -1.44867,-2.38411 -1.27354,-3.77841 1.35141,-0.10088 2.73765,0.68918 3.60443,1.72081"
         id="path50"
         inkscape:connector-curvature="0"
         style="clip-rule:evenodd" /></clipPath><clipPath
       clipPathUnits="userSpaceOnUse"
       id="clipPath58"><path
         d="m -183.5,-172 h 960 v 540 h -960 z"
         id="path56"
         inkscape:connector-curvature="0" /></clipPath><clipPath
       clipPathUnits="userSpaceOnUse"
       id="clipPath68"><path
         d="m -183.5,-172 h 960 v 540 h -960 z"
         id="path66"
         inkscape:connector-curvature="0" /></clipPath><clipPath
       clipPathUnits="userSpaceOnUse"
       id="clipPath82"><path
         d="m 41.00341,15.03417 -0.79481,2.47868 c -0.08313,0.25351 -0.24216,0.85045 -0.4738,1.78883 h -0.02826 c -0.09331,-0.40415 -0.24248,-1.0001 -0.4462,-1.78883 L 38.479,15.03417 Z m 2.74719,-3.95793 h -1.60343 l -0.8786,2.7886 h -3.05374 l -0.83687,-2.7886 H 35.8156 l 3.02647,9.49299 h 1.86892 z"
         id="path80"
         inkscape:connector-curvature="0"
         style="clip-rule:evenodd" /></clipPath><clipPath
       clipPathUnits="userSpaceOnUse"
       id="clipPath88"><path
         d="m -183.5,-172 h 960 v 540 h -960 z"
         id="path86"
         inkscape:connector-curvature="0" /></clipPath><clipPath
       clipPathUnits="userSpaceOnUse"
       id="clipPath98"><path
         d="m 49.98554,14.52722 c 0,0.66562 -0.14819,1.21611 -0.44653,1.6488 -0.32594,0.44961 -0.76327,0.67525 -1.31199,0.67525 -0.3703,0 -0.70807,-0.12576 -1.01002,-0.37396 -0.30229,-0.24919 -0.49943,-0.57504 -0.59242,-0.97953 -0.04633,-0.18781 -0.06998,-0.34077 -0.06998,-0.46255 v -1.14212 c 0,-0.49673 0.15147,-0.91681 0.4531,-1.26091 0.30195,-0.3431 0.6946,-0.51299 1.17825,-0.51299 0.56745,0 1.00872,0.22066 1.32447,0.66198 0.31708,0.43999 0.47512,1.02333 0.47512,1.74603 m 1.5341,0.05508 c 0,-1.16369 -0.3128,-2.08382 -0.93972,-2.75907 -0.56087,-0.60092 -1.25777,-0.90188 -2.08971,-0.90188 -0.89733,0 -1.54363,0.32286 -1.93561,0.97123 V 8.299984 h -1.50519 v 7.369686 c 0,0.73365 -0.01873,1.48223 -0.05619,2.25138 h 1.32448 l 0.08444,-1.08538 h 0.02793 c 0.50238,0.8176 1.26434,1.22607 2.28685,1.22607 0.80008,0 1.46773,-0.31854 2.00133,-0.95597 0.5336,-0.6404 0.80139,-1.48057 0.80139,-2.52347"
         id="path96"
         inkscape:connector-curvature="0"
         style="clip-rule:evenodd" /></clipPath><clipPath
       clipPathUnits="userSpaceOnUse"
       id="clipPath104"><path
         d="m -183.5,-172 h 960 v 540 h -960 z"
         id="path102"
         inkscape:connector-curvature="0" /></clipPath><clipPath
       clipPathUnits="userSpaceOnUse"
       id="clipPath114"><path
         d="m 57.78014,14.52722 c 0,0.66562 -0.14884,1.21611 -0.44653,1.6488 -0.32496,0.44961 -0.76196,0.67525 -1.31001,0.67525 -0.37195,0 -0.70939,-0.12576 -1.01135,-0.37396 -0.30294,-0.24919 -0.4991,-0.57504 -0.59274,-0.97953 -0.046,-0.18781 -0.07031,-0.34077 -0.07031,-0.46255 v -1.14212 c 0,-0.49673 0.1518,-0.91681 0.4531,-1.26091 0.30294,-0.34078 0.6946,-0.51299 1.17858,-0.51299 0.56843,0 1.01003,0.22066 1.32447,0.66198 0.31642,0.43999 0.47479,1.02333 0.47479,1.74603 m 1.53476,0.05508 c 0,-1.16369 -0.31313,-2.08382 -0.93906,-2.75907 -0.5612,-0.60092 -1.25876,-0.90188 -2.0907,-0.90188 -0.89667,0 -1.54297,0.32286 -1.93496,0.97123 V 8.299984 h -1.50584 v 7.369686 c 0,0.73365 -0.01906,1.48223 -0.0552,2.25138 h 1.32414 l 0.08379,-1.08538 h 0.02858 c 0.50108,0.8176 1.26303,1.22607 2.28752,1.22607 0.79876,0 1.46608,-0.31854 2.00067,-0.95597 0.53294,-0.6404 0.80106,-1.48057 0.80106,-2.52347"
         id="path112"
         inkscape:connector-curvature="0"
         style="clip-rule:evenodd" /></clipPath><clipPath
       clipPathUnits="userSpaceOnUse"
       id="clipPath120"><path
         d="m -183.5,-172 h 960 v 540 h -960 z"
         id="path118"
         inkscape:connector-curvature="0" /></clipPath><clipPath
       clipPathUnits="userSpaceOnUse"
       id="clipPath130"><path
         d="m 68.03098,13.73882 c 0,-0.80898 -0.27896,-1.46465 -0.8349,-1.97266 -0.61213,-0.55248 -1.46642,-0.83021 -2.56023,-0.83021 -1.01233,0 -1.82259,0.19643 -2.43472,0.59097 l 0.34796,1.26754 c 0.6601,-0.39519 1.38657,-0.59229 2.1758,-0.59229 0.56843,0 1.0097,0.12974 1.32447,0.38822 0.31642,0.25716 0.47479,0.60258 0.47479,1.03428 0,0.38491 -0.1311,0.7081 -0.39034,0.97123 -0.26056,0.26313 -0.6923,0.50802 -1.29688,0.73332 -1.64614,0.61917 -2.46888,1.5267 -2.46888,2.71892 0,0.77878 0.28947,1.4162 0.87104,1.91359 0.58059,0.49873 1.34977,0.74726 2.30822,0.74726 0.8556,0 1.56761,-0.15032 2.13374,-0.45094 l -0.37753,-1.23868 c -0.53294,0.29134 -1.13423,0.437 -1.80649,0.437 -0.53162,0 -0.94858,-0.13305 -1.24692,-0.39652 -0.25005,-0.23293 -0.3772,-0.51929 -0.3772,-0.85874 0,-0.37496 0.1449,-0.6862 0.4324,-0.92909 0.25135,-0.22531 0.7061,-0.47052 1.36652,-0.73332 0.80895,-0.32917 1.40399,-0.71208 1.78448,-1.1534 0.38377,-0.44132 0.57467,-0.99048 0.57467,-1.64648"
         id="path128"
         inkscape:connector-curvature="0"
         style="clip-rule:evenodd" /></clipPath><clipPath
       clipPathUnits="userSpaceOnUse"
       id="clipPath136"><path
         d="m -183.5,-172 h 960 v 540 h -960 z"
         id="path134"
         inkscape:connector-curvature="0" /></clipPath><clipPath
       clipPathUnits="userSpaceOnUse"
       id="clipPath146"><path
         d="m 73.02342,16.7801 h -1.6606 v -3.32416 c 0,-0.84547 0.29309,-1.26688 0.87827,-1.26688 0.26943,0 0.49253,0.02323 0.6693,0.07001 l 0.04206,-1.15406 c -0.2967,-0.11216 -0.68803,-0.16823 -1.17103,-0.16823 -0.59438,0 -1.05964,0.18416 -1.39544,0.55048 -0.33449,0.366 -0.50239,0.98119 -0.50239,1.84524 v 3.44992 h -0.98768 v 1.14145 h 0.98768 v 1.25428 l 1.47923,0.4506 v -1.70488 h 1.6606 z"
         id="path144"
         inkscape:connector-curvature="0"
         style="clip-rule:evenodd" /></clipPath><clipPath
       clipPathUnits="userSpaceOnUse"
       id="clipPath152"><path
         d="m -183.5,-172 h 960 v 540 h -960 z"
         id="path150"
         inkscape:connector-curvature="0" /></clipPath><clipPath
       clipPathUnits="userSpaceOnUse"
       id="clipPath162"><path
         d="m 78.93643,14.52075 c 0,0.6268 -0.13472,1.16468 -0.40382,1.61363 -0.3151,0.54385 -0.76721,0.81627 -1.35338,0.81627 -0.60293,0 -1.06622,-0.27242 -1.38033,-0.81627 -0.27074,-0.44895 -0.40382,-0.99678 -0.40382,-1.64283 0,-0.62681 0.13308,-1.16701 0.40382,-1.61496 0.32561,-0.54452 0.78003,-0.81661 1.3685,-0.81661 0.575,0 1.02646,0.27873 1.35404,0.82922 0.27502,0.46056 0.41499,1.00242 0.41499,1.63155 m 1.56038,0.0345 c 0,-1.05252 -0.2967,-1.91525 -0.8924,-2.59116 -0.62198,-0.69516 -1.44965,-1.04258 -2.48203,-1.04258 -0.9959,0 -1.78742,0.33315 -2.3782,0.99844 -0.59044,0.66762 -0.8855,1.50745 -0.8855,2.52149 0,1.06016 0.30492,1.92919 0.9131,2.60544 0.6095,0.67492 1.42962,1.01271 2.46166,1.01271 0.99557,0 1.79269,-0.33282 2.39824,-0.99944 0.57763,-0.64738 0.86513,-1.48124 0.86513,-2.5049"
         id="path160"
         inkscape:connector-curvature="0"
         style="clip-rule:evenodd" /></clipPath><clipPath
       clipPathUnits="userSpaceOnUse"
       id="clipPath168"><path
         d="m -183.5,-172 h 960 v 540 h -960 z"
         id="path166"
         inkscape:connector-curvature="0" /></clipPath><clipPath
       clipPathUnits="userSpaceOnUse"
       id="clipPath178"><path
         d="m 85.39424,16.58343 c -0.14918,0.02787 -0.30788,0.04214 -0.47446,0.04214 -0.52999,0 -0.93906,-0.20108 -1.22754,-0.60557 -0.25136,-0.35803 -0.37589,-0.80765 -0.37589,-1.35249 v -3.59127 h -1.50617 v 4.69025 c 0,0.78774 -0.01413,1.50679 -0.04403,2.15383 h 1.31166 l 0.0552,-1.31002 h 0.04173 c 0.15935,0.45061 0.41038,0.81263 0.75275,1.08472 0.33547,0.24554 0.69822,0.36732 1.08889,0.36732 0.13931,0 0.26483,-0.01062 0.3772,-0.02787 z"
         id="path176"
         inkscape:connector-curvature="0"
         style="clip-rule:evenodd" /></clipPath><clipPath
       clipPathUnits="userSpaceOnUse"
       id="clipPath184"><path
         d="m -183.5,-172 h 960 v 540 h -960 z"
         id="path182"
         inkscape:connector-curvature="0" /></clipPath><clipPath
       clipPathUnits="userSpaceOnUse"
       id="clipPath194"><path
         d="m 90.69311,15.2171 c 0.01084,0.45094 -0.08839,0.83983 -0.29243,1.16866 -0.26122,0.42373 -0.66174,0.63477 -1.19994,0.63477 -0.4922,0 -0.89273,-0.20506 -1.1983,-0.6195 -0.25038,-0.3285 -0.39955,-0.72436 -0.44522,-1.18393 z m 1.43585,-0.39453 c 0,-0.27309 -0.01708,-0.50238 -0.05421,-0.68886 h -4.51753 c 0.0161,-0.67757 0.23592,-1.19388 0.65517,-1.55125 0.38016,-0.31887 0.87236,-0.47881 1.47726,-0.47881 0.66897,0 1.27946,0.10718 1.82751,0.32452 l 0.23658,-1.05585 c -0.6417,-0.28238 -1.39873,-0.42207 -2.27306,-0.42207 -1.05077,0 -1.87549,0.31191 -2.47612,0.93473 -0.59832,0.62415 -0.89831,1.46266 -0.89831,2.51286 0,1.03229 0.27731,1.89103 0.83687,2.5779 0.58519,0.73165 1.37507,1.09732 2.37032,1.09732 0.97618,0 1.71612,-0.36567 2.21884,-1.09732 0.39724,-0.58035 0.59668,-1.29907 0.59668,-2.15317 z"
         id="path192"
         inkscape:connector-curvature="0"
         style="clip-rule:evenodd" /></clipPath><clipPath
       clipPathUnits="userSpaceOnUse"
       id="clipPath200"><path
         d="m -183.5,-172 h 960 v 540 h -960 z"
         id="path198"
         inkscape:connector-curvature="0" /></clipPath></defs><sodipodi:namedview
     pagecolor="#ffffff"
     bordercolor="#666666"
     borderopacity="1"
     objecttolerance="10"
     gridtolerance="10"
     guidetolerance="10"
     inkscape:pageopacity="0"
     inkscape:pageshadow="2"
     inkscape:window-width="1920"
     inkscape:window-height="1017"
     id="namedview4"
     showgrid="false"
     inkscape:zoom="5.718342"
     inkscape:cx="109.10326"
     inkscape:cy="35.812031"
     inkscape:window-x="-8"
     inkscape:window-y="-8"
     inkscape:window-maximized="1"
     inkscape:current-layer="g10" /><g
     id="g10"
     inkscape:groupmode="layer"
     inkscape:label="buttonIos"
     transform="matrix(1.3333333,0,0,-1.3333333,0,49.333333)"><g
       id="g12" /><g
       id="g14"
       transform="matrix(1,0,0,1.0236381,0,-0.93370553)"><g
         id="g16"
         clip-path="url(#clipPath20)"><g
           id="g22"
           clip-path="url(#clipPath26)"><path
             d="m -2.5,-2 h 120 v 41.5 h -120 z"
             style="fill:#5e7c8d;fill-opacity:1;fill-rule:nonzero;stroke:none"
             id="path28"
             inkscape:connector-curvature="0" /></g></g></g><g
       id="g30"><g
         id="g32"
         clip-path="url(#clipPath36)"><g
           id="g38"
           clip-path="url(#clipPath42)"><path
             d="m 7.710218,4.893422 h 24.7233 v 23.57672 h -24.7233 z"
             style="fill:#fefefe;fill-opacity:1;fill-rule:nonzero;stroke:none"
             id="path44"
             inkscape:connector-curvature="0" /></g></g></g><g
       id="g46"><g
         id="g48"
         clip-path="url(#clipPath52)"><g
           id="g54"
           clip-path="url(#clipPath58)"><path
             d="m 17.51127,23.72242 h 9.899047 V 34.37533 H 17.51127 Z"
             style="fill:#fefefe;fill-opacity:1;fill-rule:nonzero;stroke:none"
             id="path60"
             inkscape:connector-curvature="0" /></g></g></g><g
       id="g62"><g
         id="g64"
         clip-path="url(#clipPath68)"><g
           id="g70"
           transform="matrix(0.5,0,0,-0.5,36.59786,29.62252)"><text
             transform="translate(0,12)"
             style="font-variant:normal;font-weight:normal;font-size:13px;font-family:Lato;-inkscape-font-specification:Lato-Regular;writing-mode:lr-tb;fill:#ffffff;fill-opacity:1;fill-rule:nonzero;stroke:none"
             id="text74"><tspan
               x="0 8.9127998 16.1486 26.829399 30.165199 37.401001 44.0518 46.5686 52.218399 59.454201 66.690002 73.925797 76.442596 81.2994"
               y="0"
               sodipodi:role="line"
               id="tspan72">Coming soon to</tspan></text>
</g></g></g><g
       id="g76"><g
         id="g78"
         clip-path="url(#clipPath82)"><g
           id="g84"
           clip-path="url(#clipPath88)"><path
             d="m 33.3156,8.57624 h 12.935 v 14.49299 h -12.935 z"
             style="fill:#fefefe;fill-opacity:1;fill-rule:nonzero;stroke:none"
             id="path90"
             inkscape:connector-curvature="0" /></g></g></g><g
       id="g92"><g
         id="g94"
         clip-path="url(#clipPath98)"><g
           id="g100"
           clip-path="url(#clipPath104)"><path
             d="m 42.49322,5.799984 h 11.52641 v 14.76176 H 42.49322 Z"
             style="fill:#fefefe;fill-opacity:1;fill-rule:nonzero;stroke:none"
             id="path106"
             inkscape:connector-curvature="0" /></g></g></g><g
       id="g108"><g
         id="g110"
         clip-path="url(#clipPath114)"><g
           id="g116"
           clip-path="url(#clipPath120)"><path
             d="M 50.28914,5.799984 H 61.8149 v 14.76176 H 50.28914 Z"
             style="fill:#fefefe;fill-opacity:1;fill-rule:nonzero;stroke:none"
             id="path122"
             inkscape:connector-curvature="0" /></g></g></g><g
       id="g124"><g
         id="g126"
         clip-path="url(#clipPath130)"><g
           id="g132"
           clip-path="url(#clipPath136)"><path
             d="m 59.70113,8.435947 h 10.82984 v 14.77304 H 59.70113 Z"
             style="fill:#fefefe;fill-opacity:1;fill-rule:nonzero;stroke:none"
             id="path138"
             inkscape:connector-curvature="0" /></g></g></g><g
       id="g140"><g
         id="g142"
         clip-path="url(#clipPath146)"><g
           id="g148"
           clip-path="url(#clipPath152)"><path
             d="m 66.39591,8.436777 h 9.127514 v 13.69198 H 66.39591 Z"
             style="fill:#fefefe;fill-opacity:1;fill-rule:nonzero;stroke:none"
             id="path154"
             inkscape:connector-curvature="0" /></g></g></g><g
       id="g156"><g
         id="g158"
         clip-path="url(#clipPath162)"><g
           id="g164"
           clip-path="url(#clipPath168)"><path
             d="m 71.35868,8.421513 h 11.63813 v 12.13807 H 71.35868 Z"
             style="fill:#fefefe;fill-opacity:1;fill-rule:nonzero;stroke:none"
             id="path170"
             inkscape:connector-curvature="0" /></g></g></g><g
       id="g172"><g
         id="g174"
         clip-path="url(#clipPath178)"><g
           id="g180"
           clip-path="url(#clipPath184)"><path
             d="m 79.26615,8.57624 h 8.628086 v 11.9861 H 79.26615 Z"
             style="fill:#fefefe;fill-opacity:1;fill-rule:nonzero;stroke:none"
             id="path186"
             inkscape:connector-curvature="0" /></g></g></g><g
       id="g188"><g
         id="g190"
         clip-path="url(#clipPath194)"><g
           id="g196"
           clip-path="url(#clipPath200)"><path
             d="m 83.60625,8.450249 h 11.02271 v 12.12281 H 83.60625 Z"
             style="fill:#fefefe;fill-opacity:1;fill-rule:nonzero;stroke:none"
             id="path202"
             inkscape:connector-curvature="0" /></g></g></g></g></svg>