<?xml version="1.0" encoding="UTF-8" standalone="no"?>
<!-- Created with Inkscape (http://www.inkscape.org/) -->

<svg
   xmlns:dc="http://purl.org/dc/elements/1.1/"
   xmlns:cc="http://creativecommons.org/ns#"
   xmlns:rdf="http://www.w3.org/1999/02/22-rdf-syntax-ns#"
   xmlns:svg="http://www.w3.org/2000/svg"
   xmlns="http://www.w3.org/2000/svg"
   xmlns:sodipodi="http://sodipodi.sourceforge.net/DTD/sodipodi-0.dtd"
   xmlns:inkscape="http://www.inkscape.org/namespaces/inkscape"
   width="200"
   height="200"
   viewBox="0 0 52.916665 52.916668"
   version="1.1"
   id="svg8"
   inkscape:version="0.92.1 r15371"
   sodipodi:docname="timeMachine.svg">
  <defs
     id="defs2">
    <inkscape:perspective
       sodipodi:type="inkscape:persp3d"
       inkscape:vp_x="55.45153 : -11.266779 : 1"
       inkscape:vp_y="-761.33218 : -805.13142 : 0"
       inkscape:vp_z="12.284839 : 27.231022 : 1"
       inkscape:persp3d-origin="40.582711 : 15.082934 : 1"
       id="perspective4491" />
  </defs>
  <sodipodi:namedview
     id="base"
     pagecolor="#ffffff"
     bordercolor="#666666"
     borderopacity="1.0"
     inkscape:pageopacity="0.0"
     inkscape:pageshadow="2"
     inkscape:zoom="3.959798"
     inkscape:cx="82.494988"
     inkscape:cy="123.81966"
     inkscape:document-units="mm"
     inkscape:current-layer="layer1"
     showgrid="false"
     units="px"
     inkscape:window-width="1536"
     inkscape:window-height="801"
     inkscape:window-x="-8"
     inkscape:window-y="-8"
     inkscape:window-maximized="1"
     inkscape:snap-global="false">
    <inkscape:grid
       type="xygrid"
       id="grid4865" />
  </sodipodi:namedview>
  <metadata
     id="metadata5">
    <rdf:RDF>
      <cc:Work
         rdf:about="">
        <dc:format>image/svg+xml</dc:format>
        <dc:type
           rdf:resource="http://purl.org/dc/dcmitype/StillImage" />
        <dc:title></dc:title>
      </cc:Work>
    </rdf:RDF>
  </metadata>
  <g
     inkscape:label="Layer 1"
     inkscape:groupmode="layer"
     id="layer1"
     transform="translate(0,-244.08332)">
    <rect
       style="opacity:1;fill:#f4f4f4;fill-opacity:1;stroke:#afafaf;stroke-width:3.1610229;stroke-linecap:square;stroke-linejoin:miter;stroke-miterlimit:4;stroke-dasharray:none;stroke-opacity:1;paint-order:stroke fill markers"
       id="rect4485"
       width="50.315277"
       height="50.145401"
       x="1.3169016"
       y="245.75908"
       ry="16.417721" />
    <path
       style="opacity:1;fill:#d7d7ff;fill-opacity:1;stroke:#d7d7ff;stroke-width:1.19701147;stroke-linecap:round;stroke-linejoin:miter;stroke-miterlimit:4;stroke-dasharray:none;stroke-opacity:1;paint-order:stroke fill markers"
       id="path4777-5"
       sodipodi:type="arc"
       sodipodi:cx="12.954768"
       sodipodi:cy="255.15894"
       sodipodi:rx="5.1886768"
       sodipodi:ry="4.9724693"
       sodipodi:start="0"
       sodipodi:end="6.275087"
       sodipodi:open="true"
       d="m 18.143445,255.15894 a 5.1886768,4.9724693 0 0 1 -5.178172,4.97245 5.1886768,4.9724693 0 0 1 -5.1991391,-4.95232 5.1886768,4.9724693 0 0 1 5.1571201,-4.99251 5.1886768,4.9724693 0 0 1 5.220021,4.93211" />
    <path
       style="opacity:1;fill:#d7d7ff;fill-opacity:1;stroke:#d7d7ff;stroke-width:0.84122419;stroke-linecap:round;stroke-linejoin:miter;stroke-miterlimit:4;stroke-dasharray:none;stroke-opacity:1;paint-order:stroke fill markers"
       id="path4777-5-7"
       sodipodi:type="arc"
       sodipodi:cx="9.3210058"
       sodipodi:cy="266.03012"
       sodipodi:rx="3.4622843"
       sodipodi:ry="3.6803813"
       sodipodi:start="0"
       sodipodi:end="6.275087"
       sodipodi:open="true"
       d="m 12.78329,266.03012 a 3.4622843,3.6803813 0 0 1 -3.4552745,3.68037 3.4622843,3.6803813 0 0 1 -3.4692656,-3.66547 3.4622843,3.6803813 0 0 1 3.4412271,-3.69521 3.4622843,3.6803813 0 0 1 3.4832,3.65051" />
    <path
       style="opacity:1;fill:#d7d7ff;fill-opacity:1;stroke:#d7d7ff;stroke-width:0.65109152;stroke-linecap:round;stroke-linejoin:miter;stroke-miterlimit:4;stroke-dasharray:none;stroke-opacity:1;paint-order:stroke fill markers"
       id="path4777-5-7-6"
       sodipodi:type="arc"
       sodipodi:cx="24.555372"
       sodipodi:cy="252.80029"
       sodipodi:rx="2.8557725"
       sodipodi:ry="2.6729603"
       sodipodi:start="0"
       sodipodi:end="6.275087"
       sodipodi:open="true"
       d="m 27.411145,252.80029 a 2.8557725,2.6729603 0 0 1 -2.849991,2.67296 2.8557725,2.6729603 0 0 1 -2.861531,-2.66213 2.8557725,2.6729603 0 0 1 2.838404,-2.68374 2.8557725,2.6729603 0 0 1 2.873024,2.65127" />
  </g>
  <g
     inkscape:groupmode="layer"
     id="layer2"
     inkscape:label="Layer 2">
    <g
       sodipodi:type="inkscape:box3d"
       id="g4551"
       style="opacity:1;fill:#afafaf;fill-opacity:1;stroke:#afafaf;stroke-width:0.03779528;stroke-linecap:square;stroke-linejoin:miter;stroke-miterlimit:4;stroke-dasharray:none;stroke-opacity:1;paint-order:stroke fill markers"
       inkscape:perspectiveID="#perspective4491"
       inkscape:corner0="0.14637048 : 0.0072125138 : 0 : 1"
       inkscape:corner7="-0.45965286 : -0.00187167 : 0.25 : 1">
      <path
         sodipodi:type="inkscape:box3dside"
         id="path4553"
         style="fill:#353564;fill-rule:evenodd;stroke:none;stroke-width:0.04158626;stroke-linejoin:round"
         inkscape:box3dsidetype="6"
         d="m 37.691184,46.263679 6.033025,-6.380103 -5.628766,-2.541935 -4.952899,5.237838 z"
         points="43.724209,39.883576 38.095443,37.341641 33.142544,42.579479 37.691184,46.263679 " />
      <path
         sodipodi:type="inkscape:box3dside"
         id="path4561"
         style="fill:#afafde;fill-rule:evenodd;stroke:none;stroke-width:0.04158626;stroke-linejoin:round"
         inkscape:box3dsidetype="13"
         d="M 43.724209,39.883576 30.571495,12.630193 24.78712,16.75985 38.095443,37.341641 Z"
         points="30.571495,12.630193 24.78712,16.75985 38.095443,37.341641 43.724209,39.883576 " />
      <path
         sodipodi:type="inkscape:box3dside"
         id="path4563"
         style="fill:#e9e9ff;fill-rule:evenodd;stroke:none;stroke-width:0.04158626;stroke-linejoin:round"
         inkscape:box3dsidetype="11"
         d="M 33.142544,42.579479 16.036432,26.013963 24.78712,16.75985 38.095443,37.341641 Z"
         points="16.036432,26.013963 24.78712,16.75985 38.095443,37.341641 33.142544,42.579479 " />
      <path
         sodipodi:type="inkscape:box3dside"
         id="path4555"
         style="fill:#4d4d9f;fill-rule:evenodd;stroke:none;stroke-width:0.04158626;stroke-linejoin:round"
         inkscape:box3dsidetype="5"
         d="M 37.691184,46.263679 17.772164,26.165865 16.036432,26.013963 33.142544,42.579479 Z"
         points="17.772164,26.165865 16.036432,26.013963 33.142544,42.579479 37.691184,46.263679 " />
      <path
         sodipodi:type="inkscape:box3dside"
         id="path4559"
         style="fill:#d7d7ff;fill-rule:evenodd;stroke:none;stroke-width:0.04158626;stroke-linejoin:round"
         inkscape:box3dsidetype="14"
         d="M 17.772164,26.165865 30.571495,12.630193 24.78712,16.75985 16.036432,26.013963 Z"
         points="30.571495,12.630193 24.78712,16.75985 16.036432,26.013963 17.772164,26.165865 " />
    </g>
    <g
       id="g4836"
       transform="matrix(1.0952429,-0.29346945,0.29346945,1.0952429,-84.070218,-261.64922)">
      <path
         transform="translate(0.90203467,-0.23386877)"
         sodipodi:type="inkscape:box3dside"
         id="path4557"
         style="opacity:1;fill:#8686bf;fill-opacity:1;fill-rule:evenodd;stroke:none;stroke-width:0.03667611;stroke-linecap:square;stroke-linejoin:round;stroke-miterlimit:4;stroke-dasharray:none;stroke-opacity:1;paint-order:stroke fill markers"
         inkscape:box3dsidetype="3"
         d="m 20.158559,268.66357 13.993111,-8.60916 4.983646,26.21878 -6.595719,4.05797 z"
         points="34.15167,260.05441 39.135316,286.27319 32.539597,290.33116 20.158559,268.66357 " />
      <path
         style="fill:none;stroke:#000000;stroke-width:1.05833328;stroke-linecap:round;stroke-linejoin:miter;stroke-miterlimit:4;stroke-dasharray:none;stroke-opacity:1"
         d="m 26.159005,270.84097 7.41673,-4.87767"
         id="path4565"
         inkscape:connector-curvature="0"
         sodipodi:nodetypes="cc" />
      <path
         style="fill:none;stroke:#000000;stroke-width:1.05833328;stroke-linecap:round;stroke-linejoin:miter;stroke-miterlimit:4;stroke-dasharray:none;stroke-opacity:1"
         d="m 27.562169,273.17958 2.271792,-1.33634"
         id="path4567"
         inkscape:connector-curvature="0"
         sodipodi:nodetypes="cc" />
      <path
         style="fill:none;stroke:#000000;stroke-width:1.02976465;stroke-linecap:round;stroke-linejoin:miter;stroke-miterlimit:4;stroke-dasharray:none;stroke-opacity:1"
         d="m 33.026834,269.78622 1.164615,-0.69683"
         id="path4571"
         inkscape:connector-curvature="0"
         sodipodi:nodetypes="cc" />
      <path
         style="opacity:1;fill:#ff0000;fill-opacity:1;stroke:#ff0000;stroke-width:1.12217081;stroke-linecap:round;stroke-linejoin:miter;stroke-miterlimit:4;stroke-dasharray:none;stroke-opacity:1;paint-order:stroke fill markers"
         id="path4573"
         sodipodi:type="arc"
         sodipodi:cx="29.458353"
         sodipodi:cy="275.75208"
         sodipodi:rx="0.74458271"
         sodipodi:ry="0.73647904"
         sodipodi:start="0"
         sodipodi:end="6.2750894"
         d="m 30.202936,275.75208 a 0.74458271,0.73647904 0 0 1 -0.743076,0.73647 0.74458271,0.73647904 0 0 1 -0.746084,-0.73349 0.74458271,0.73647904 0 0 1 0.740056,-0.73945 0.74458271,0.73647904 0 0 1 0.749079,0.7305"
         sodipodi:open="true" />
      <path
         style="opacity:1;fill:#88c7c7;fill-opacity:1;stroke:#88c7c7;stroke-width:1.31487679;stroke-linecap:round;stroke-linejoin:miter;stroke-miterlimit:4;stroke-dasharray:none;stroke-opacity:1;paint-order:stroke fill markers"
         id="path4575"
         sodipodi:type="arc"
         sodipodi:cx="32.52483"
         sodipodi:cy="274.56033"
         sodipodi:rx="0.54513246"
         sodipodi:ry="0.57282257"
         sodipodi:start="0"
         sodipodi:end="6.275087"
         sodipodi:open="true"
         d="m 33.069962,274.56033 a 0.54513246,0.57282257 0 0 1 -0.544028,0.57282 0.54513246,0.57282257 0 0 1 -0.546232,-0.5705 0.54513246,0.57282257 0 0 1 0.541817,-0.57513 0.54513246,0.57282257 0 0 1 0.548425,0.56817" />
      <path
         style="opacity:1;fill:#88c7c7;fill-opacity:1;stroke:#88c7c7;stroke-width:1.05833328;stroke-linecap:round;stroke-linejoin:miter;stroke-miterlimit:4;stroke-dasharray:none;stroke-opacity:1;paint-order:stroke fill markers"
         id="path4575-0"
         sodipodi:type="arc"
         sodipodi:cx="31.423559"
         sodipodi:cy="280.70215"
         sodipodi:rx="0.48442602"
         sodipodi:ry="0.41760862"
         sodipodi:start="0"
         sodipodi:end="6.275087"
         sodipodi:open="true"
         d="m 31.907985,280.70215 a 0.48442602,0.41760862 0 0 1 -0.483445,0.41761 0.48442602,0.41760862 0 0 1 -0.485403,-0.41592 0.48442602,0.41760862 0 0 1 0.48148,-0.41929 0.48442602,0.41760862 0 0 1 0.487352,0.41422" />
      <path
         style="opacity:1;fill:#88c7c7;fill-opacity:1;stroke:#88c7c7;stroke-width:1.05833328;stroke-linecap:round;stroke-linejoin:miter;stroke-miterlimit:4;stroke-dasharray:none;stroke-opacity:1;paint-order:stroke fill markers"
         id="path4575-2"
         sodipodi:type="arc"
         sodipodi:cx="34.022144"
         sodipodi:cy="279.14301"
         sodipodi:rx="0.48442602"
         sodipodi:ry="0.41760862"
         sodipodi:start="0"
         sodipodi:end="6.275087"
         sodipodi:open="true"
         d="m 34.50657,279.14301 a 0.48442602,0.41760862 0 0 1 -0.483445,0.4176 0.48442602,0.41760862 0 0 1 -0.485403,-0.41591 0.48442602,0.41760862 0 0 1 0.48148,-0.4193 0.48442602,0.41760862 0 0 1 0.487352,0.41422" />
      <path
         style="opacity:1;fill:#88c7c7;fill-opacity:1;stroke:#88c7c7;stroke-width:1.05833328;stroke-linecap:round;stroke-linejoin:miter;stroke-miterlimit:4;stroke-dasharray:none;stroke-opacity:1;paint-order:stroke fill markers"
         id="path4575-9"
         sodipodi:type="arc"
         sodipodi:cx="36.66798"
         sodipodi:cy="277.86731"
         sodipodi:rx="0.48442602"
         sodipodi:ry="0.41760862"
         sodipodi:start="0"
         sodipodi:end="6.275087"
         sodipodi:open="true"
         d="m 37.152406,277.86731 a 0.48442602,0.41760862 0 0 1 -0.483445,0.41761 0.48442602,0.41760862 0 0 1 -0.485403,-0.41592 0.48442602,0.41760862 0 0 1 0.48148,-0.41929 0.48442602,0.41760862 0 0 1 0.487352,0.41422" />
      <path
         style="opacity:1;fill:#88c7c7;fill-opacity:1;stroke:#88c7c7;stroke-width:0.93045634;stroke-linecap:round;stroke-linejoin:miter;stroke-miterlimit:4;stroke-dasharray:none;stroke-opacity:1;paint-order:stroke fill markers"
         id="path4575-21"
         sodipodi:type="arc"
         sodipodi:cx="32.864597"
         sodipodi:cy="283.70233"
         sodipodi:rx="0.43025321"
         sodipodi:ry="0.36342925"
         sodipodi:start="0"
         sodipodi:end="6.275087"
         sodipodi:open="true"
         d="m 33.294851,283.70233 a 0.43025321,0.36342925 0 0 1 -0.429383,0.36343 0.43025321,0.36342925 0 0 1 -0.43112,-0.36196 0.43025321,0.36342925 0 0 1 0.427636,-0.36489 0.43025321,0.36342925 0 0 1 0.432852,0.36048"
         inkscape:transform-center-x="4.7391178e-005"
         inkscape:transform-center-y="0.047246728" />
      <path
         style="opacity:1;fill:#88c7c7;fill-opacity:1;stroke:#88c7c7;stroke-width:0.93045634;stroke-linecap:round;stroke-linejoin:miter;stroke-miterlimit:4;stroke-dasharray:none;stroke-opacity:1;paint-order:stroke fill markers"
         id="path4575-21-2"
         sodipodi:type="arc"
         sodipodi:cx="35.392315"
         sodipodi:cy="282.3558"
         sodipodi:rx="0.43025321"
         sodipodi:ry="0.36342925"
         sodipodi:start="0"
         sodipodi:end="6.275087"
         sodipodi:open="true"
         d="m 35.822568,282.3558 a 0.43025321,0.36342925 0 0 1 -0.429382,0.36343 0.43025321,0.36342925 0 0 1 -0.431121,-0.36195 0.43025321,0.36342925 0 0 1 0.427637,-0.3649 0.43025321,0.36342925 0 0 1 0.432852,0.36048"
         inkscape:transform-center-x="0.094541441"
         inkscape:transform-center-y="0.094493753" />
      <path
         style="opacity:1;fill:#88c7c7;fill-opacity:1;stroke:#88c7c7;stroke-width:0.93045634;stroke-linecap:round;stroke-linejoin:miter;stroke-miterlimit:4;stroke-dasharray:none;stroke-opacity:1;paint-order:stroke fill markers"
         id="path4575-21-7"
         sodipodi:type="arc"
         sodipodi:cx="37.754665"
         sodipodi:cy="281.26913"
         sodipodi:rx="0.43025321"
         sodipodi:ry="0.36342925"
         sodipodi:start="0"
         sodipodi:end="6.275087"
         sodipodi:open="true"
         d="m 38.184919,281.26913 a 0.43025321,0.36342925 0 0 1 -0.429383,0.36343 0.43025321,0.36342925 0 0 1 -0.43112,-0.36195 0.43025321,0.36342925 0 0 1 0.427636,-0.3649 0.43025321,0.36342925 0 0 1 0.432852,0.36048"
         inkscape:transform-center-x="4.7391178e-005"
         inkscape:transform-center-y="0.047246728" />
      <path
         style="opacity:1;fill:#88c7c7;fill-opacity:1;stroke:#88c7c7;stroke-width:0.81633013;stroke-linecap:round;stroke-linejoin:miter;stroke-miterlimit:4;stroke-dasharray:none;stroke-opacity:1;paint-order:stroke fill markers"
         id="path4575-21-5"
         sodipodi:type="arc"
         sodipodi:cx="34.093025"
         sodipodi:cy="286.27728"
         sodipodi:rx="0.36920512"
         sodipodi:ry="0.32599875"
         sodipodi:start="0"
         sodipodi:end="6.275087"
         sodipodi:open="true"
         d="m 34.46223,286.27728 a 0.36920512,0.32599875 0 0 1 -0.368457,0.326 0.36920512,0.32599875 0 0 1 -0.36995,-0.32468 0.36920512,0.32599875 0 0 1 0.36696,-0.32731 0.36920512,0.32599875 0 0 1 0.371435,0.32335"
         inkscape:transform-center-x="4.0488268e-005"
         inkscape:transform-center-y="0.04236901" />
      <path
         style="opacity:1;fill:#88c7c7;fill-opacity:1;stroke:#88c7c7;stroke-width:0.81633013;stroke-linecap:round;stroke-linejoin:miter;stroke-miterlimit:4;stroke-dasharray:none;stroke-opacity:1;paint-order:stroke fill markers"
         id="path4575-21-5-5"
         sodipodi:type="arc"
         sodipodi:cx="36.431755"
         sodipodi:cy="285.09613"
         sodipodi:rx="0.36920512"
         sodipodi:ry="0.32599875"
         sodipodi:start="0"
         sodipodi:end="6.275087"
         sodipodi:open="true"
         d="m 36.80096,285.09613 a 0.36920512,0.32599875 0 0 1 -0.368457,0.326 0.36920512,0.32599875 0 0 1 -0.36995,-0.32468 0.36920512,0.32599875 0 0 1 0.36696,-0.32731 0.36920512,0.32599875 0 0 1 0.371435,0.32335"
         inkscape:transform-center-x="4.0488268e-005"
         inkscape:transform-center-y="0.04236901" />
      <path
         style="opacity:1;fill:#88c7c7;fill-opacity:1;stroke:#88c7c7;stroke-width:0.81633013;stroke-linecap:round;stroke-linejoin:miter;stroke-miterlimit:4;stroke-dasharray:none;stroke-opacity:1;paint-order:stroke fill markers"
         id="path4575-21-5-7"
         sodipodi:type="arc"
         sodipodi:cx="38.510624"
         sodipodi:cy="284.05667"
         sodipodi:rx="0.36920512"
         sodipodi:ry="0.32599875"
         sodipodi:start="0"
         sodipodi:end="6.275087"
         sodipodi:open="true"
         d="m 38.879829,284.05667 a 0.36920512,0.32599875 0 0 1 -0.368458,0.326 0.36920512,0.32599875 0 0 1 -0.369949,-0.32468 0.36920512,0.32599875 0 0 1 0.366959,-0.32731 0.36920512,0.32599875 0 0 1 0.371436,0.32335"
         inkscape:transform-center-x="4.0488268e-005"
         inkscape:transform-center-y="0.04236901" />
      <path
         style="opacity:1;fill:#ff0000;fill-opacity:1;stroke:#ff0000;stroke-width:1.05833328;stroke-linecap:round;stroke-linejoin:miter;stroke-miterlimit:4;stroke-dasharray:none;stroke-opacity:1;paint-order:stroke fill markers"
         id="path4573-6"
         sodipodi:type="arc"
         sodipodi:cx="33.596931"
         sodipodi:cy="263.22076"
         sodipodi:rx="0.63476509"
         sodipodi:ry="0.76839989"
         sodipodi:start="0"
         sodipodi:end="6.2750894"
         d="m 34.231697,263.22076 a 0.63476509,0.76839989 0 0 1 -0.633481,0.7684 0.63476509,0.76839989 0 0 1 -0.636044,-0.76529 0.63476509,0.76839989 0 0 1 0.630905,-0.77149 0.63476509,0.76839989 0 0 1 0.638599,0.76216"
         sodipodi:open="true" />
      <path
         style="opacity:1;fill:#88c7c7;fill-opacity:1;stroke:#88c7c7;stroke-width:1.31487679;stroke-linecap:round;stroke-linejoin:miter;stroke-miterlimit:4;stroke-dasharray:none;stroke-opacity:1;paint-order:stroke fill markers"
         id="path4575-06"
         sodipodi:type="arc"
         sodipodi:cx="35.392303"
         sodipodi:cy="272.67017"
         sodipodi:rx="0.54513252"
         sodipodi:ry="0.57282257"
         sodipodi:start="0"
         sodipodi:end="6.275087"
         sodipodi:open="true"
         d="m 35.937436,272.67017 a 0.54513252,0.57282257 0 0 1 -0.544029,0.57282 0.54513252,0.57282257 0 0 1 -0.546232,-0.5705 0.54513252,0.57282257 0 0 1 0.541817,-0.57514 0.54513252,0.57282257 0 0 1 0.548426,0.56818" />
      <path
         style="fill:none;stroke:#000000;stroke-width:0.34689349;stroke-linecap:round;stroke-linejoin:miter;stroke-miterlimit:4;stroke-dasharray:none;stroke-opacity:1"
         d="m 25.009627,264.74328 c -0.0045,-0.23053 0.111419,-1.63143 0.911488,-1.99274 1.159155,-0.52348 1.797802,-0.286 2.086348,-0.16251"
         id="path4754"
         inkscape:connector-curvature="0"
         sodipodi:nodetypes="csc" />
      <path
         style="fill:none;stroke:#000000;stroke-width:0.52916676;stroke-linecap:round;stroke-linejoin:miter;stroke-miterlimit:4;stroke-dasharray:none;stroke-opacity:1"
         d="m 23.59082,264.47739 c -0.09091,-0.24591 0.167372,-2.46393 1.410695,-2.99613 1.897418,-0.81218 3.617284,-0.0789 3.229008,-0.24435"
         id="path4754-7"
         inkscape:connector-curvature="0"
         sodipodi:nodetypes="csc" />
      <path
         style="fill:none;stroke:#000000;stroke-width:0.70539492;stroke-linecap:round;stroke-linejoin:miter;stroke-miterlimit:4;stroke-dasharray:none;stroke-opacity:1"
         d="m 21.839408,263.65377 c -0.03142,-0.42293 0.229157,-3.19784 1.931449,-3.88857 2.597845,-1.0541 4.873444,-0.16205 4.420988,-0.31713"
         id="path4754-9"
         inkscape:connector-curvature="0"
         sodipodi:nodetypes="csc" />
      <path
         d="m 25.323788,254.73801 a 4.6438084,4.3431296 0 0 1 -4.634407,4.34312 4.6438084,4.3431296 0 0 1 -4.653172,-4.32554 4.6438084,4.3431296 0 0 1 4.615565,-4.36063 4.6438084,4.3431296 0 0 1 4.671861,4.30787"
         sodipodi:open="true"
         sodipodi:end="6.275087"
         sodipodi:start="0"
         sodipodi:ry="4.3431296"
         sodipodi:rx="4.6438084"
         sodipodi:cy="254.73801"
         sodipodi:cx="20.679979"
         sodipodi:type="arc"
         id="path4777"
         style="opacity:1;fill:#d7d7d7;fill-opacity:1;stroke:#8686bf;stroke-width:1.05833328;stroke-linecap:round;stroke-linejoin:miter;stroke-miterlimit:4;stroke-dasharray:none;stroke-opacity:1;paint-order:stroke fill markers" />
      <path
         inkscape:connector-curvature="0"
         id="path4779"
         d="m 18.909318,251.19667 0.801809,1.80407"
         style="fill:none;stroke:#8686bf;stroke-width:0.26458332;stroke-linecap:round;stroke-linejoin:miter;stroke-miterlimit:4;stroke-dasharray:none;stroke-opacity:1" />
      <path
         inkscape:connector-curvature="0"
         id="path4779-8"
         d="m 17.005024,256.27479 1.804067,-0.80181"
         style="fill:none;stroke:#8686bf;stroke-width:0.26458332;stroke-linecap:round;stroke-linejoin:miter;stroke-miterlimit:4;stroke-dasharray:none;stroke-opacity:1" />
      <path
         inkscape:connector-curvature="0"
         id="path4779-9"
         d="m 21.381561,256.44184 0.801809,1.80407"
         style="fill:none;stroke:#8686bf;stroke-width:0.26458332;stroke-linecap:round;stroke-linejoin:miter;stroke-miterlimit:4;stroke-dasharray:none;stroke-opacity:1" />
      <path
         inkscape:connector-curvature="0"
         id="path4779-7"
         d="m 22.751317,253.93619 1.80407,-0.80181"
         style="fill:none;stroke:#8686bf;stroke-width:0.26458332;stroke-linecap:round;stroke-linejoin:miter;stroke-miterlimit:4;stroke-dasharray:none;stroke-opacity:1" />
      <path
         sodipodi:nodetypes="cccccccc"
         inkscape:connector-curvature="0"
         id="path4810"
         d="m 21.000156,251.43373 1.37684,-0.64 0.27537,1.34399 -0.731612,-0.35049 -1.264807,2.69483 -0.552766,-0.064 1.806121,-2.75884 z"
         style="fill:#000000;fill-opacity:1;stroke:#000000;stroke-width:0.26283741px;stroke-linecap:butt;stroke-linejoin:miter;stroke-opacity:1" />
      <path
         sodipodi:nodetypes="cccccccc"
         inkscape:connector-curvature="0"
         id="path4812"
         d="m 20.105575,254.56503 0.94494,1.81901 -0.732329,0.18899 1.110306,0.44885 0.307105,-1.06306 -0.614211,0.35436 -0.496094,-2.07887 z"
         style="fill:#000000;fill-opacity:1;stroke:#000000;stroke-width:0.26458332px;stroke-linecap:butt;stroke-linejoin:miter;stroke-opacity:1" />
    </g>
    <g
       id="g5084"
       transform="matrix(-0.1795972,0.67026586,-0.67026586,-0.1795972,21.928046,34.071025)">
      <path
         style="opacity:1;fill:#d7d7d7;fill-opacity:1;stroke:#8686bf;stroke-width:1.20002174;stroke-linecap:round;stroke-linejoin:miter;stroke-miterlimit:4;stroke-dasharray:none;stroke-opacity:1;paint-order:stroke fill markers"
         id="path4777-2"
         sodipodi:type="arc"
         sodipodi:cx="-17.234818"
         sodipodi:cy="17.588772"
         sodipodi:rx="5.2655163"
         sodipodi:ry="4.924583"
         sodipodi:start="0"
         sodipodi:end="6.275087"
         sodipodi:open="true"
         d="m -11.969301,17.588772 a 5.2655163,4.924583 0 0 1 -5.254856,4.924573 5.2655163,4.924583 0 0 1 -5.276134,-4.904633 5.2655163,4.924583 0 0 1 5.233492,-4.944432 5.2655163,4.924583 0 0 1 5.297325,4.884611"
         transform="rotate(-15)" />
      <path
         style="fill:none;stroke:#8686bf;stroke-width:0.30000544;stroke-linecap:round;stroke-linejoin:miter;stroke-miterlimit:4;stroke-dasharray:none;stroke-opacity:1"
         d="m -15.073824,18.09116 1.407615,1.740589"
         id="path4779-1"
         inkscape:connector-curvature="0" />
      <path
         style="fill:none;stroke:#8686bf;stroke-width:0.30000544;stroke-linecap:round;stroke-linejoin:miter;stroke-miterlimit:4;stroke-dasharray:none;stroke-opacity:1"
         d="m -15.669216,24.211787 1.740585,-1.407615"
         id="path4779-8-0"
         inkscape:connector-curvature="0" />
      <path
         style="fill:none;stroke:#8686bf;stroke-width:0.30000544;stroke-linecap:round;stroke-linejoin:miter;stroke-miterlimit:4;stroke-dasharray:none;stroke-opacity:1"
         d="m -10.82682,23.110367 1.4076145,1.740589"
         id="path4779-9-1"
         inkscape:connector-curvature="0" />
      <path
         style="fill:none;stroke:#8686bf;stroke-width:0.30000544;stroke-linecap:round;stroke-linejoin:miter;stroke-miterlimit:4;stroke-dasharray:none;stroke-opacity:1"
         d="m -10.061937,19.964091 1.7405883,-1.407617"
         id="path4779-7-2"
         inkscape:connector-curvature="0" />
      <path
         style="fill:#000000;fill-opacity:1;stroke:#000000;stroke-width:0.29802579px;stroke-linecap:butt;stroke-linejoin:miter;stroke-opacity:1"
         d="m -12.714279,17.737201 1.320154,-1.105016 0.696017,1.391183 -0.904151,-0.169166 -0.594421,3.322676 -0.624195,0.09212 1.168506,-3.551641 z"
         id="path4810-9"
         inkscape:connector-curvature="0"
         sodipodi:nodetypes="cccccccc" />
      <path
         style="fill:#000000;fill-opacity:1;stroke:#000000;stroke-width:0.30000544px;stroke-linecap:butt;stroke-linejoin:miter;stroke-opacity:1"
         d="m -12.775121,21.429268 1.568762,1.714946 -0.746615,0.421906 1.347779,0.165759 0.02438,-1.254435 -0.568716,0.568363 -1.153428,-2.131279 z"
         id="path4812-8"
         inkscape:connector-curvature="0"
         sodipodi:nodetypes="cccccccc" />
    </g>
    <path
       transform="rotate(166.03935)"
       d="m -19.019424,-14.688339 a 2.8559914,2.6710708 0 0 1 -2.85021,2.671065 2.8559914,2.6710708 0 0 1 -2.86175,-2.66025 2.8559914,2.6710708 0 0 1 2.838622,-2.681837 2.8559914,2.6710708 0 0 1 2.873244,2.649391"
       sodipodi:open="true"
       sodipodi:end="6.275087"
       sodipodi:start="0"
       sodipodi:ry="2.6710708"
       sodipodi:rx="2.8559914"
       sodipodi:cy="-14.688339"
       sodipodi:cx="-21.875416"
       sodipodi:type="arc"
       id="path4777-9"
       style="opacity:1;fill:#d7d7d7;fill-opacity:1;stroke:#8686bf;stroke-width:0.65088618;stroke-linecap:round;stroke-linejoin:miter;stroke-miterlimit:4;stroke-dasharray:none;stroke-opacity:1;paint-order:stroke fill markers" />
    <path
       inkscape:connector-curvature="0"
       id="path4779-2"
       d="M 26.355148,10.827812 25.608914,9.8700314"
       style="fill:none;stroke:#8686bf;stroke-width:0.16272154;stroke-linecap:round;stroke-linejoin:miter;stroke-miterlimit:4;stroke-dasharray:none;stroke-opacity:1" />
    <path
       inkscape:connector-curvature="0"
       id="path4779-8-4"
       d="M 26.73825,7.5144162 25.780471,8.2606501"
       style="fill:none;stroke:#8686bf;stroke-width:0.16272154;stroke-linecap:round;stroke-linejoin:miter;stroke-miterlimit:4;stroke-dasharray:none;stroke-opacity:1" />
    <path
       inkscape:connector-curvature="0"
       id="path4779-9-2"
       d="M 24.101353,8.0640808 23.35512,7.1063004"
       style="fill:none;stroke:#8686bf;stroke-width:0.16272154;stroke-linecap:round;stroke-linejoin:miter;stroke-miterlimit:4;stroke-dasharray:none;stroke-opacity:1" />
    <path
       inkscape:connector-curvature="0"
       id="path4779-7-9"
       d="m 23.655597,9.7628007 -0.95778,0.7462343"
       style="fill:none;stroke:#8686bf;stroke-width:0.16272154;stroke-linecap:round;stroke-linejoin:miter;stroke-miterlimit:4;stroke-dasharray:none;stroke-opacity:1" />
    <path
       sodipodi:nodetypes="cccccccc"
       inkscape:connector-curvature="0"
       id="path4810-98"
       d="m 26.398707,9.7410122 0.144324,0.9225608 -0.841184,-0.06562 0.331483,-0.372876 -1.141673,-0.9220276 -0.10448,-0.5993312 1.323761,1.5363408 z"
       style="fill:#000000;fill-opacity:1;stroke:#000000;stroke-width:0.1616478px;stroke-linecap:butt;stroke-linejoin:miter;stroke-opacity:1" />
    <path
       sodipodi:nodetypes="cccccccc"
       inkscape:connector-curvature="0"
       id="path4812-5"
       d="m 25.094142,9.1366612 -0.78663,-1.0872017 0.409045,-0.2214566 -0.729278,-0.1031523 -0.02556,0.6800479 0.31401,-0.3026308 0.604542,1.1671536 z"
       style="fill:#000000;fill-opacity:1;stroke:#000000;stroke-width:0.16272154px;stroke-linecap:butt;stroke-linejoin:miter;stroke-opacity:1" />
  </g>
</svg>
