<?xml version="1.0" encoding="UTF-8" standalone="no"?>
<svg
   xmlns:dc="http://purl.org/dc/elements/1.1/"
   xmlns:cc="http://creativecommons.org/ns#"
   xmlns:rdf="http://www.w3.org/1999/02/22-rdf-syntax-ns#"
   xmlns:svg="http://www.w3.org/2000/svg"
   xmlns="http://www.w3.org/2000/svg"
   xmlns:sodipodi="http://sodipodi.sourceforge.net/DTD/sodipodi-0.dtd"
   xmlns:inkscape="http://www.inkscape.org/namespaces/inkscape"
   id="Layer_2"
   data-name="Layer 2"
   width="400"
   height="400"
   viewBox="0 0 400 399.99999"
   version="1.1"
   sodipodi:docname="REACT.svg"
   inkscape:version="0.92.2 (5c3e80d, 2017-08-06)">
  <metadata
     id="metadata2093">
    <rdf:RDF>
      <cc:Work
         rdf:about="">
        <dc:format>image/svg+xml</dc:format>
        <dc:type
           rdf:resource="http://purl.org/dc/dcmitype/StillImage" />
        <dc:title>Artboard 1</dc:title>
      </cc:Work>
    </rdf:RDF>
  </metadata>
  <sodipodi:namedview
     pagecolor="#ffffff"
     bordercolor="#666666"
     borderopacity="1"
     objecttolerance="10"
     gridtolerance="10"
     guidetolerance="10"
     inkscape:pageopacity="0"
     inkscape:pageshadow="2"
     inkscape:window-width="1920"
     inkscape:window-height="1017"
     id="namedview2091"
     showgrid="false"
     inkscape:zoom="0.74946251"
     inkscape:cx="223.51553"
     inkscape:cy="20.158316"
     inkscape:window-x="-8"
     inkscape:window-y="-8"
     inkscape:window-maximized="1"
     inkscape:current-layer="g2641" />
  <defs
     id="defs2078">
    <style
       id="style2076">.cls-1{fill:#00d8ff;}.cls-2{fill:none;stroke:#00d8ff;stroke-miterlimit:10;stroke-width:24px;}</style>
  </defs>
  <title
     id="title2080">Artboard 1</title>
  <g
     id="g2648"
     transform="matrix(0.38904003,0,0,0.43250765,4.3688516,216.09905)">
    <path
       style="fill:none;stroke:#00d8ff;stroke-width:24px;stroke-miterlimit:10"
       inkscape:connector-curvature="0"
       id="path2086"
       d="m 346.06,-136.65002 c 60.07,-104.17 130.83,-192.32 198,-250.81 81,-70.46 158,-98 199.56,-74.1 43.29,25 59,110.36 35.83,222.81 -17.52,85 -59.34,185.999996 -116.37,284.949996 C 604.64,147.52998 537.69,236.85998 471.4,294.79998 c -83.87,73.32 -165,99.85 -207.43,75.37 -41.2,-23.77 -57,-101.63 -37.2,-205.74 16.71,-87.970004 58.62,-195.930004 119.29,-301.08 z"
       class="cls-2" />
    <g
       id="g2641">
      <ellipse
         class="cls-1"
         cx="504.59"
         cy="-36.914989"
         id="circle2082"
         style="fill:#00d8ff;stroke-width:0.92856359"
         rx="89.57"
         ry="77.229965" />
      <path
         class="cls-2"
         d="m 504.59,-228.28002 c 120.25,0 232,17.26 316.2,46.26 101.49,34.94 163.88,87.899996 163.88,135.849996 0,49.9999996 -66.13,106.24 -175.11,142.35 -82.4,27.300004 -190.82,41.550004 -305,41.550004 -117,0 -227.87,-13.38 -311.18,-41.850004 -105.42,-36 -168.91,-93.0000004 -168.91,-142 0,-47.57 59.57,-100.109996 159.64,-134.999996 84.57,-29.53 199.05,-47.16 320.48,-47.16 z"
         id="path2084"
         inkscape:connector-curvature="0"
         style="fill:none;stroke:#00d8ff;stroke-width:24px;stroke-miterlimit:10" />
      <path
         class="cls-2"
         d="M 346.21,46.409976 C 286,-57.650024 244.92,-162.99002 227.82,-250.42002 c -20.61,-105.33 -6,-185.87 35.46,-209.9 43.25,-25 125.08,4 210.93,80.24 64.91,57.63 131.56,144.32 188.79,243.12 58.6,101.309996 102.55,203.899996 119.65,290.31 21.63,109.29 4.12,192.79 -38.31,217.35 -41.16,23.83 -116.49,-1.4 -196.81,-70.52 -67.87,-58.44 -140.48,-148.68 -201.32,-253.770004 z"
         id="path2088"
         inkscape:connector-curvature="0"
         style="fill:none;stroke:#00d8ff;stroke-width:24px;stroke-miterlimit:10" />
    </g>
  </g>
</svg>
