<?xml version="1.0" encoding="UTF-8" standalone="no"?>
<svg
   xmlns:dc="http://purl.org/dc/elements/1.1/"
   xmlns:cc="http://creativecommons.org/ns#"
   xmlns:rdf="http://www.w3.org/1999/02/22-rdf-syntax-ns#"
   xmlns:svg="http://www.w3.org/2000/svg"
   xmlns="http://www.w3.org/2000/svg"
   xmlns:sodipodi="http://sodipodi.sourceforge.net/DTD/sodipodi-0.dtd"
   xmlns:inkscape="http://www.inkscape.org/namespaces/inkscape"
   version="1.1"
   width="400"
   height="400"
   viewBox="0 0 400 400"
   id="svg2748"
   sodipodi:docname="RUBY.svg"
   inkscape:version="0.92.2 (5c3e80d, 2017-08-06)">
  <metadata
     id="metadata2754">
    <rdf:RDF>
      <cc:Work
         rdf:about="">
        <dc:format>image/svg+xml</dc:format>
        <dc:type
           rdf:resource="http://purl.org/dc/dcmitype/StillImage" />
        <dc:title></dc:title>
      </cc:Work>
    </rdf:RDF>
  </metadata>
  <defs
     id="defs2752" />
  <sodipodi:namedview
     pagecolor="#ffffff"
     bordercolor="#666666"
     borderopacity="1"
     objecttolerance="10"
     gridtolerance="10"
     guidetolerance="10"
     inkscape:pageopacity="0"
     inkscape:pageshadow="2"
     inkscape:window-width="1920"
     inkscape:window-height="1017"
     id="namedview2750"
     showgrid="false"
     inkscape:zoom="1.2896175"
     inkscape:cx="100"
     inkscape:cy="246.58475"
     inkscape:window-x="-8"
     inkscape:window-y="-8"
     inkscape:window-maximized="1"
     inkscape:current-layer="ruby" />
  <g
     id="ruby"
     transform="matrix(1.9642929,0,0,2.0576121,3.6003666,15.805316)">
    <path
       d="m 33.525,0.097 c 0,0 132.95,0 132.95,0 0,0 33.238,47.086 33.238,47.086 C 166.474,92.422 133.239,137.664 100,182.903 66.762,137.664 33.526,92.422 0.287,47.183 c 0,0 33.238,-47.086 33.238,-47.086 z"
       id="path2733"
       inkscape:connector-curvature="0"
       style="fill:#fa1324;fill-opacity:1" />
    <path
       d="m 100,0.097 c 12,15.697 24.008,31.388 36.007,47.086 0,0 -72.014,0 -72.014,0 C 75.961,31.533 87.928,15.882 99.897,0.232 Z"
       id="path2735"
       inkscape:connector-curvature="0"
       style="fill:#e0062a;fill-opacity:1" />
    <path
       d="M 33.515,0.097 C 44.208,16.469 53.827,31.31 63.993,47.183 H 0.287 C 10.76,32.342 21.232,17.502 31.705,2.661 Z"
       id="path2737"
       inkscape:connector-curvature="0"
       style="fill:#c92f2f;fill-opacity:1" />
    <path
       d="m 149.856,47.183 v 67.86 L 100,182.903 50.144,115.043 v -67.86 c 0,0 99.712,0 99.712,0 z"
       id="path2739"
       inkscape:connector-curvature="0"
       style="fill:#f6062f;fill-opacity:1" />
    <path
       d="M 63.993,47.183 C 75.995,92.423 87.998,137.663 100,182.903 66.762,137.664 33.526,92.422 0.287,47.183 c 0,0 63.706,0 63.706,0 z"
       id="path2741"
       inkscape:connector-curvature="0"
       style="fill:#ff3f2f;fill-opacity:1" />
    <path
       d="m 199.713,47.183 c -33.239,45.239 -66.474,90.481 -99.713,135.72 12.007,-45.239 23.997,-90.482 36.007,-135.72 0,0 63.706,0 63.706,0 z"
       id="path2743"
       inkscape:connector-curvature="0"
       style="fill:#c3001b;fill-opacity:1" />
    <path
       d="M 166.485,0.097 C 155.517,16.469 146.448,31.31 136.007,47.183 h 63.706 C 189.24,32.343 178.768,17.502 168.295,2.661 Z"
       id="path2745"
       inkscape:connector-curvature="0"
       style="fill:#ba2f2f;fill-opacity:1" />
  </g>
</svg>
