<?xml version="1.0" encoding="UTF-8" standalone="no"?>
<!-- Created with Inkscape (http://www.inkscape.org/) -->

<svg
   xmlns:dc="http://purl.org/dc/elements/1.1/"
   xmlns:cc="http://creativecommons.org/ns#"
   xmlns:rdf="http://www.w3.org/1999/02/22-rdf-syntax-ns#"
   xmlns:svg="http://www.w3.org/2000/svg"
   xmlns="http://www.w3.org/2000/svg"
   xmlns:sodipodi="http://sodipodi.sourceforge.net/DTD/sodipodi-0.dtd"
   xmlns:inkscape="http://www.inkscape.org/namespaces/inkscape"
   version="1.1"
   id="svg2"
   xml:space="preserve"
   width="153.33333"
   height="49.333332"
   viewBox="0 0 153.33333 49.333332"
   sodipodi:docname="buttonAndroid.svg"
   inkscape:version="0.92.2 (5c3e80d, 2017-08-06)"><metadata
     id="metadata8"><rdf:RDF><cc:Work
         rdf:about=""><dc:format>image/svg+xml</dc:format><dc:type
           rdf:resource="http://purl.org/dc/dcmitype/StillImage" /><dc:title></dc:title></cc:Work></rdf:RDF></metadata><defs
     id="defs6"><clipPath
       clipPathUnits="userSpaceOnUse"
       id="clipPath20"><path
         d="M 0,0.5 H 115 V 37 H 0 Z"
         id="path18"
         inkscape:connector-curvature="0"
         style="clip-rule:evenodd" /></clipPath><clipPath
       clipPathUnits="userSpaceOnUse"
       id="clipPath26"><path
         d="m -310.5,-172 h 960 v 540 h -960 z"
         id="path24"
         inkscape:connector-curvature="0" /></clipPath><clipPath
       clipPathUnits="userSpaceOnUse"
       id="clipPath36"><path
         d="m -310.5,-172 h 960 v 540 h -960 z"
         id="path34"
         inkscape:connector-curvature="0" /></clipPath><clipPath
       clipPathUnits="userSpaceOnUse"
       id="clipPath50"><path
         d="m 85.33756,11.43706 h 1.3317 v 9.01119 h -1.3317 z m 12.44924,5.76501 -1.52654,-3.9065 h -0.04633 l -1.58404,3.9065 H 93.19501 L 95.57124,11.742 94.21654,8.704536 h 1.3892 l 3.66193,8.497534 z m -7.71683,-4.74135 c -0.43601,0 -1.04486,0.22033 -1.04486,0.76517 0,0.69549 0.75802,0.96227 1.4122,0.96227 0.58552,0 0.86086,-0.12741 1.2167,-0.30129 -0.10317,-0.83485 -0.81485,-1.42615 -1.58404,-1.42615 z m 0.16067,4.93878 c -0.96403,0 -1.96288,-0.42904 -2.37623,-1.3797 l 1.18253,-0.49872 c 0.25235,0.49872 0.72319,0.66098 1.2167,0.66098 0.68869,0 1.38887,-0.41743 1.40037,-1.15937 v -0.09258 c -0.24084,0.13903 -0.75735,0.34774 -1.38887,0.34774 -1.2742,0 -2.57107,-0.7071 -2.57107,-2.02873 0,-1.20583 1.0442,-1.98228 2.21523,-1.98228 0.89536,0 1.38887,0.40548 1.69904,0.88097 h 0.04567 v -0.69549 h 1.2857 v 3.45456 c 0,1.5997 -1.1822,2.49262 -2.70907,2.49262 z M 81.6638,16.10541 h -1.89421 v 3.08856 h 1.89421 c 0.9959,0 1.56137,-0.83253 1.56137,-1.54428 0,-0.69848 -0.56547,-1.54428 -1.56137,-1.54428 z m -0.03417,4.34284 h -3.19142 v -9.01119 h 1.33138 v 3.41408 h 1.86004 c 1.47627,0 2.92724,1.0794 2.92724,2.79855 0,1.71948 -1.45097,2.79856 -2.92724,2.79856 z M 64.09246,12.45906 c -0.92,0 -1.6905,0.77811 -1.6905,1.84624 0,1.08006 0.7705,1.86979 1.6905,1.86979 0.90817,0 1.62117,-0.78973 1.62117,-1.86979 0,-1.06813 -0.713,-1.84624 -1.62117,-1.84624 z m 1.52917,4.23864 h -0.046 c -0.299,0.36003 -0.874,0.68488 -1.5985,0.68488 -1.51767,0 -2.90884,-1.34685 -2.90884,-3.07728 0,-1.71849 1.39117,-3.05406 2.90884,-3.05406 0.7245,0 1.2995,0.32518 1.5985,0.69682 h 0.046 v -0.44132 c 0,-1.17264 -0.621,-1.799781 -1.6215,-1.799781 -0.81617,0 -1.32217,0.592291 -1.52917,1.091351 l -1.1615,-0.48744 c 0.33383,-0.812956 1.219,-1.811729 2.69067,-1.811729 1.564,0 2.8865,0.929091 2.8865,3.193419 v 5.50453 h -1.265 z m 2.33121,-5.26064 h 1.334 v 9.01119 h -1.334 z m 3.46972,2.97276 c -0.0345,1.18459 0.9085,1.7885 1.58667,1.7885 0.52933,0 0.97783,-0.26712 1.127,-0.65037 z m 4.13967,1.022 c -0.253,0.6852 -1.02317,1.95076 -2.59867,1.95076 -1.564,0 -2.86317,-1.24233 -2.86317,-3.06567 0,-1.71849 1.28767,-3.06567 3.01267,-3.06567 1.39117,0 2.19617,0.85941 2.52967,1.3588 l -1.03467,0.69681 c -0.34533,-0.511 -0.81683,-0.84779 -1.495,-0.84779 -0.67883,0 -1.1615,0.31357 -1.472,0.92909 l 4.05917,1.69526 z m -32.8785,1.01038 v -1.30072 h 3.082 c -0.092,-0.73166 -0.3335,-1.26556 -0.7015,-1.63719 -0.4485,-0.45294 -1.15,-0.95232 -2.3805,-0.95232 -1.89717,0 -3.38067,1.54428 -3.38067,3.46053 0,1.91592 1.4835,3.46053 3.38067,3.46053 1.02383,0 1.771,-0.40648 2.323,-0.92909 l 0.90817,0.91748 c -0.77017,0.74327 -1.79367,1.31201 -3.23117,1.31201 -2.59867,0 -4.78334,-2.13658 -4.78334,-4.76093 0,-2.62435 2.18467,-4.76126 4.78334,-4.76126 1.403,0 2.461,0.46455 3.28867,1.33557 0.851,0.85941 1.11583,2.06689 1.11583,3.04244 0,0.30195 -0.02333,0.58068 -0.06933,0.81295 z m 7.97344,-3.98314 c -0.92,0 -1.7135,0.7665 -1.7135,1.85785 0,1.10329 0.7935,1.85818 1.7135,1.85818 0.92,0 1.71317,-0.75489 1.71317,-1.85818 0,-1.09135 -0.79317,-1.85785 -1.71317,-1.85785 z m 0,4.92352 c -1.67867,0 -3.04717,-1.28878 -3.04717,-3.06567 0,-1.76494 1.3685,-3.06567 3.04717,-3.06567 1.67867,0 3.04684,1.30073 3.04684,3.06567 0,1.77689 -1.36817,3.06567 -3.04684,3.06567 z m 6.71337,-4.92352 c -0.92,0 -1.7135,0.7665 -1.7135,1.85785 0,1.10329 0.7935,1.85818 1.7135,1.85818 0.91935,0 1.71285,-0.75489 1.71285,-1.85818 0,-1.09135 -0.7935,-1.85785 -1.71285,-1.85785 z m 0,4.92352 c -1.67933,0 -3.0475,-1.28878 -3.0475,-3.06567 0,-1.76494 1.36817,-3.06567 3.0475,-3.06567 1.67867,0 3.04685,1.30073 3.04685,3.06567 0,1.77689 -1.36818,3.06567 -3.04685,3.06567 z"
         id="path48"
         inkscape:connector-curvature="0"
         style="clip-rule:evenodd" /></clipPath><clipPath
       clipPathUnits="userSpaceOnUse"
       id="clipPath56"><path
         d="m -310.5,-172 h 960 v 540 h -960 z"
         id="path54"
         inkscape:connector-curvature="0" /></clipPath><clipPath
       clipPathUnits="userSpaceOnUse"
       id="clipPath66"><path
         d="M 22.73885,18.66602 12.45917,29.34359 C 12.33201,29.0944 12.25709,28.78315 12.25709,28.40787 V 9.051917 c 0,-0.416764 0.08872,-0.759864 0.2438,-1.020009 z"
         id="path64"
         inkscape:connector-curvature="0"
         style="clip-rule:evenodd" /></clipPath><clipPath
       clipPathUnits="userSpaceOnUse"
       id="clipPath72"><path
         d="m -310.5,-172 h 960 v 540 h -960 z"
         id="path70"
         inkscape:connector-curvature="0" /></clipPath><clipPath
       clipPathUnits="userSpaceOnUse"
       id="clipPath82"><path
         d="m 31.48546,19.93758 -3.95995,2.27229 -3.41221,-3.54415 3.41254,-3.54415 3.95962,2.27196 c 1.21932,0.6998 1.21932,1.84457 0,2.54405"
         id="path80"
         inkscape:connector-curvature="0"
         style="clip-rule:evenodd" /></clipPath><clipPath
       clipPathUnits="userSpaceOnUse"
       id="clipPath88"><path
         d="m -310.5,-172 h 960 v 540 h -960 z"
         id="path86"
         inkscape:connector-curvature="0" /></clipPath><clipPath
       clipPathUnits="userSpaceOnUse"
       id="clipPath98"><path
         d="m 13.23693,7.36867 c 0.35354,-0.07665 0.77805,6.63e-4 1.23674,0.263463 l 12.16667,6.981457 -3.21408,3.33842 z"
         id="path96"
         inkscape:connector-curvature="0"
         style="clip-rule:evenodd" /></clipPath><clipPath
       clipPathUnits="userSpaceOnUse"
       id="clipPath104"><path
         d="m -310.5,-172 h 960 v 540 h -960 z"
         id="path102"
         inkscape:connector-curvature="0" /></clipPath><clipPath
       clipPathUnits="userSpaceOnUse"
       id="clipPath114"><path
         d="m 26.64031,22.71831 -12.16667,6.98146 c -0.45869,0.26313 -0.8832,0.34011 -1.23675,0.26346 L 23.42622,19.37956 Z"
         id="path112"
         inkscape:connector-curvature="0"
         style="clip-rule:evenodd" /></clipPath><clipPath
       clipPathUnits="userSpaceOnUse"
       id="clipPath120"><path
         d="m -310.5,-172 h 960 v 540 h -960 z"
         id="path118"
         inkscape:connector-curvature="0" /></clipPath></defs><sodipodi:namedview
     pagecolor="#ffffff"
     bordercolor="#666666"
     borderopacity="1"
     objecttolerance="10"
     gridtolerance="10"
     guidetolerance="10"
     inkscape:pageopacity="0"
     inkscape:pageshadow="2"
     inkscape:window-width="1920"
     inkscape:window-height="1017"
     id="namedview4"
     showgrid="false"
     inkscape:zoom="4.5521741"
     inkscape:cx="131.05466"
     inkscape:cy="4.714913"
     inkscape:window-x="-8"
     inkscape:window-y="-8"
     inkscape:window-maximized="1"
     inkscape:current-layer="g10" /><g
     id="g10"
     inkscape:groupmode="layer"
     inkscape:label="buttonAndroid (1)"
     transform="matrix(1.3333333,0,0,-1.3333333,0,49.333333)"><g
       id="g12" /><g
       id="g14"
       transform="matrix(1.0071633,0,0,1.0225694,-0.16475645,-0.67031049)"><g
         id="g16"
         clip-path="url(#clipPath20)"><g
           id="g22"
           clip-path="url(#clipPath26)"><path
             d="m -2.5,-2 h 120 v 41.5 h -120 z"
             style="fill:#f05f3f;fill-opacity:1;fill-rule:nonzero;stroke:none"
             id="path28"
             inkscape:connector-curvature="0" /></g></g></g><g
       id="g30"><g
         id="g32"
         clip-path="url(#clipPath36)"><g
           id="g38"
           transform="matrix(0.5,0,0,-0.5,38.23973,29.62252)"><text
             transform="translate(0,12)"
             style="font-variant:normal;font-weight:normal;font-size:13px;font-family:Lato;-inkscape-font-specification:Lato-Regular;writing-mode:lr-tb;fill:#ffffff;fill-opacity:1;fill-rule:nonzero;stroke:none"
             id="text42"><tspan
               x="0 8.9127998 16.1486 26.829399 30.165199 37.401001 44.0518 46.5686 52.218399 59.454201 66.690002 73.925797 76.442596 81.2994"
               y="0"
               sodipodi:role="line"
               id="tspan40">Coming soon to</tspan></text>
</g></g></g><g
       id="g44"><g
         id="g46"
         clip-path="url(#clipPath50)"><g
           id="g52"
           clip-path="url(#clipPath56)"><path
             d="m 35.40039,5.999141 h 66.36729 v 17.27429 H 35.40039 Z"
             style="fill:#fefefe;fill-opacity:1;fill-rule:nonzero;stroke:none"
             id="path58"
             inkscape:connector-curvature="0" /></g></g></g><g
       id="g60"><g
         id="g62"
         clip-path="url(#clipPath66)"><g
           id="g68"
           clip-path="url(#clipPath72)"><path
             d="m 9.757094,5.531908 h 15.48176 v 26.31169 H 9.757094 Z"
             style="fill:#fefefe;fill-opacity:1;fill-rule:nonzero;stroke:none"
             id="path74"
             inkscape:connector-curvature="0" /></g></g></g><g
       id="g76"><g
         id="g78"
         clip-path="url(#clipPath82)"><g
           id="g84"
           clip-path="url(#clipPath88)"><path
             d="m 21.6133,12.62157 h 13.28665 v 12.0883 H 21.6133 Z"
             style="fill:#fefefe;fill-opacity:1;fill-rule:nonzero;stroke:none"
             id="path90"
             inkscape:connector-curvature="0" /></g></g></g><g
       id="g92"><g
         id="g94"
         clip-path="url(#clipPath98)"><g
           id="g100"
           clip-path="url(#clipPath104)"><path
             d="m 10.73693,4.840518 h 18.40341 v 15.61149 H 10.73693 Z"
             style="fill:#fefefe;fill-opacity:1;fill-rule:nonzero;stroke:none"
             id="path106"
             inkscape:connector-curvature="0" /></g></g></g><g
       id="g108"><g
         id="g110"
         clip-path="url(#clipPath114)"><g
           id="g116"
           clip-path="url(#clipPath120)"><path
             d="M 10.73689,16.87956 H 29.1403 V 32.49143 H 10.73689 Z"
             style="fill:#fefefe;fill-opacity:1;fill-rule:nonzero;stroke:none"
             id="path122"
             inkscape:connector-curvature="0" /></g></g></g></g></svg>