<?xml version="1.0" encoding="UTF-8" standalone="no"?>
<!-- Created with Inkscape (http://www.inkscape.org/) -->

<svg
   xmlns:dc="http://purl.org/dc/elements/1.1/"
   xmlns:cc="http://creativecommons.org/ns#"
   xmlns:rdf="http://www.w3.org/1999/02/22-rdf-syntax-ns#"
   xmlns:svg="http://www.w3.org/2000/svg"
   xmlns="http://www.w3.org/2000/svg"
   xmlns:sodipodi="http://sodipodi.sourceforge.net/DTD/sodipodi-0.dtd"
   xmlns:inkscape="http://www.inkscape.org/namespaces/inkscape"
   version="1.1"
   id="svg2"
   xml:space="preserve"
   width="100"
   height="100"
   viewBox="0 0 100 100"
   sodipodi:docname="logo100.svg"
   inkscape:version="0.92.2 (5c3e80d, 2017-08-06)"><metadata
     id="metadata8"><rdf:RDF><cc:Work
         rdf:about=""><dc:format>image/svg+xml</dc:format><dc:type
           rdf:resource="http://purl.org/dc/dcmitype/StillImage" /><dc:title></dc:title></cc:Work></rdf:RDF></metadata><defs
     id="defs6"><clipPath
       clipPathUnits="userSpaceOnUse"
       id="clipPath20"><path
         d="m 1.319784,8.338674 c 1.760158,1.767176 4.613231,1.767176 6.37311,0 1.7596,-1.76718 1.7596,-4.632091 0,-6.399272 -1.759879,-1.7671805 -4.612952,-1.7671805 -6.37311,0 -1.7598793,1.767181 -1.7598793,4.632092 0,6.399272"
         id="path18"
         inkscape:connector-curvature="0"
         style="clip-rule:evenodd" /></clipPath><clipPath
       clipPathUnits="userSpaceOnUse"
       id="clipPath26"><path
         d="m -32,-463.5 h 960 v 540 H -32 Z"
         id="path24"
         inkscape:connector-curvature="0" /></clipPath><clipPath
       clipPathUnits="userSpaceOnUse"
       id="clipPath36"><path
         d="m 41.84043,21.19554 c -2.85056,-2.86239 -6.64062,-4.43882 -10.67197,-4.43882 -4.03134,0 -7.8214,1.57643 -10.67197,4.43882 -2.85028,2.86239 -4.42047,6.66817 -4.42047,10.71652 0,4.0478 1.56991,7.85358 4.42047,10.71625 L 9.451016,53.7199 C -2.543721,41.67567 -2.543442,22.14817 9.451016,10.10395 15.44811,4.081979 23.30828,1.070853 31.16846,1.070853 c 7.86046,0 15.72092,3.011126 21.71801,9.033097 z"
         id="path34"
         inkscape:connector-curvature="0"
         style="clip-rule:evenodd" /></clipPath><clipPath
       clipPathUnits="userSpaceOnUse"
       id="clipPath42"><path
         d="m -32,-463.5 h 960 v 540 H -32 Z"
         id="path40"
         inkscape:connector-curvature="0" /></clipPath><clipPath
       clipPathUnits="userSpaceOnUse"
       id="clipPath52"><path
         d="m 25.00551,31.91187 c 0,1.65289 0.6413,3.2072 1.80507,4.37607 1.16433,1.16888 2.71165,1.81256 4.35799,1.81256 1.63213,0 3.16634,-0.63416 4.32676,-1.78427 l 4.34014,4.35815 c -2.39811,2.39182 -5.53208,3.58842 -8.6669,3.58842 -3.14764,0 -6.29556,-1.20585 -8.6973,-3.61755 -4.79371,-4.81332 -4.80263,-12.61031 -0.02901,-17.43624 l 4.33987,4.35815 c -1.1448,1.16552 -1.77662,2.70581 -1.77662,4.34471"
         id="path50"
         inkscape:connector-curvature="0"
         style="clip-rule:evenodd" /></clipPath><clipPath
       clipPathUnits="userSpaceOnUse"
       id="clipPath58"><path
         d="m -32,-463.5 h 960 v 540 H -32 Z"
         id="path56"
         inkscape:connector-curvature="0" /></clipPath></defs><sodipodi:namedview
     pagecolor="#ffffff"
     bordercolor="#666666"
     borderopacity="1"
     objecttolerance="10"
     gridtolerance="10"
     guidetolerance="10"
     inkscape:pageopacity="0"
     inkscape:pageshadow="2"
     inkscape:window-width="1920"
     inkscape:window-height="1017"
     id="namedview4"
     showgrid="false"
     inkscape:zoom="3.2777778"
     inkscape:cx="35.3335"
     inkscape:cy="35.181311"
     inkscape:window-x="-8"
     inkscape:window-y="-8"
     inkscape:window-maximized="1"
     inkscape:current-layer="g10" /><g
     id="g10"
     inkscape:groupmode="layer"
     inkscape:label="logo (1)"
     transform="matrix(1.3333333,0,0,-1.3333333,1.673e-4,100.81869)"><g
       id="g12" /><g
       id="g14"
       transform="matrix(1.4013816,0,0,1.4013816,0.43971784,0.19495319)"><g
         id="g16"
         clip-path="url(#clipPath20)"><g
           id="g22"
           clip-path="url(#clipPath26)"><path
             d="m -2.500126,-1.885983 h 14.01272 v 14.05004 h -14.01272 z"
             style="fill:#ff5e39;fill-opacity:1;fill-rule:nonzero;stroke:none"
             id="path28"
             inkscape:connector-curvature="0" /></g></g></g><g
       id="g30"
       transform="matrix(1.4093198,0,0,1.4093198,5.13594e-5,-0.25132915)"><g
         id="g32"
         clip-path="url(#clipPath36)"><g
           id="g38"
           clip-path="url(#clipPath42)"><path
             d="M -1.721443,-1.1044321 H 55.386468 V 56.219893 H -1.721443 Z"
             style="fill:#5d7c8e;fill-opacity:1;fill-rule:nonzero;stroke:none;stroke-width:0.99436736"
             id="path44"
             inkscape:connector-curvature="0" /></g></g></g><g
       id="g46"
       transform="matrix(1.4013816,0,0,1.4013816,0.43971784,0.19495319)"><g
         id="g48"
         clip-path="url(#clipPath52)"><g
           id="g54"
           clip-path="url(#clipPath58)"><path
             d="M 16.369,20.70901 H 42.33547 V 46.7628 H 16.369 Z"
             style="fill:#f7be50;fill-opacity:1;fill-rule:nonzero;stroke:none"
             id="path60"
             inkscape:connector-curvature="0" /></g></g></g></g></svg>