<svg xmlns="http://www.w3.org/2000/svg" xmlns:xlink="http://www.w3.org/1999/xlink" width="200" height="200" viewBox="0 0 52.916666 52.916666">
  <defs>
    <linearGradient id="a">
      <stop offset="0" stop-color="#001c88"/>
      <stop offset="1" stop-color="#5374ff" stop-opacity="0"/>
    </linearGradient>
    <linearGradient xlink:href="#a" id="b" x1="101.81" y1="290.196" x2="100.786" y2="100.452" gradientUnits="userSpaceOnUse"/>
  </defs>
  <g transform="matrix(.26913 0 0 .26507 -.475 -25.85)">
    <rect ry="16.211" y="101.208" x="5.292" height="192.012" width="190.5" fill="url(#b)" stroke="#f3eeee" stroke-width="2" stroke-linecap="square"  />
    <path d="M40.424 177.052l22.32 24.32c23.19-14.004 54.99 7.29 75.595.756l28.55-41.822c-20.22.373-51.41 22.49-63.15 12.34l-.71-37.355 11.875-4.977c-5.69-4.006-11.563-7.69-17.563-11.202l.268 53.94c-22.656 10.74-37.863 7.822-57.186 4.002z" stroke="#000" stroke-width="2"/>
    <path d="M89.574 234.322s-3.783-3.923-3.464-7.796c.66-8.025 8.137-13.262 16.174-12.753 7.768.493 13.03 7.458 13.063 15.24.042 9.25-16.174 18.975-16.174 18.975l.067 6.795" fill="none" stroke="#000" stroke-width="7" stroke-linecap="square"/>
    <rect rx="0" ry="2.646" y="263.738" x="95.628" height="5.292" width="6.804"  />
  </g>
</svg>
